<svg width="24" height="24" viewBox="0 0 24 24" fill="none" xmlns="http://www.w3.org/2000/svg">
<path d="M7.53713 12.1238C8.95531 12.1238 10.1156 10.9635 10.1156 9.54531C10.1156 8.12713 8.95531 6.9668 7.53713 6.9668C6.11895 6.9668 4.95862 8.12713 4.95862 9.54531C4.95862 10.9635 6.11895 12.1238 7.53713 12.1238ZM7.53713 8.65275C8.033 8.65275 8.42969 9.04944 8.42969 9.54531C8.42969 10.0412 8.033 10.4379 7.53713 10.4379C7.04126 10.4379 6.64457 10.0412 6.64457 9.54531C6.64457 9.04944 7.04126 8.65275 7.53713 8.65275Z" fill="#01C1D6"/>
<path d="M20.7769 7.95898H13.7455V9.64493H20.7769V7.95898Z" fill="#01C1D6"/>
<path d="M20.7769 11.1816H13.7455V12.8676H20.7769V11.1816Z" fill="#01C1D6"/>
<path d="M20.7769 14.4053H13.7455V16.0912H20.7769V14.4053Z" fill="#01C1D6"/>
<path d="M2.97522 15.0195V16.5963H4.66117V15.0195C4.66117 14.7914 4.8496 14.6029 5.0777 14.6029H10.0066C10.2347 14.6029 10.4232 14.7914 10.4232 15.0195V16.5963H12.1091V15.0195C12.1091 13.8591 11.167 12.917 10.0066 12.917H5.0777C3.91737 12.917 2.97522 13.8591 2.97522 15.0195Z" fill="#01C1D6"/>
<path d="M22.314 3H1.68595C0.753719 3 0 3.75372 0 4.68595V17.7074H1.68595V4.68595H22.314V19.3636H0V21.0496H24V4.68595C24 3.75372 23.2463 3 22.314 3Z" fill="#01C1D6"/>
</svg>
