<svg width="80" height="80" viewBox="0 0 80 80" fill="none" xmlns="http://www.w3.org/2000/svg">
<rect width="80" height="80" fill="#01C1D6"/>
<path d="M68.9075 41.3996H62.1004V39.7874H68.9075V41.3996ZM62.1004 37.1004H68.9075V38.687H62.1004V37.1004ZM68.3957 42.5C69.5984 42.5 70.1614 41.9882 70.1614 41.1437V40.376C70.1614 40.1457 70.0847 40.0177 69.9055 39.8642L69.1378 39.1988L69.9055 38.5335C70.0847 38.3799 70.1614 38.2776 70.1614 38.0217V37.3819C70.1614 36.5118 69.5984 36.0256 68.3957 36.0256H60.8721V42.5H68.3957ZM55.7539 41.3996H48.9213V39.7874H55.7284V41.3996H55.7539ZM48.9213 37.1004H55.7284V38.687H48.9213V37.1004ZM55.2421 42.5C56.4449 42.5 57.0079 41.9882 57.0079 41.1437V40.376C57.0079 40.1457 56.9311 40.0177 56.752 39.8642L55.9843 39.1988L56.752 38.5335C56.9311 38.3799 57.0079 38.2776 57.0079 38.0217V37.3819C57.0079 36.5118 56.4449 36.0256 55.2421 36.0256H47.7185V42.5H55.2421ZM42.2677 36V41.3228H35.8189V36H34.5906V41.0157C34.5906 41.937 35.1535 42.5 36.2539 42.5H41.8327C42.9331 42.5 43.4961 41.937 43.4961 41.0157V36H42.2677ZM22.6398 38.6614V36H21.4114V42.4744H22.6398V39.7874H29.1654V42.4744H30.3937V36H29.1654V38.6614H22.6398ZM17.8287 37.1772V36H10.6634C9.56299 36 9 36.563 9 37.4843V41.0157C9 41.937 9.56299 42.5 10.6634 42.5H17.8543V41.3484H10.2539V37.1772H17.8287Z" fill="white"/>
<path d="M73.6185 37.7266C73.4154 37.9297 73.2123 38.0313 72.9076 38.0313C72.6029 38.0313 72.3998 37.9297 72.1967 37.7266C71.9935 37.5234 71.892 37.3203 71.892 37.0156C71.892 36.7109 71.9935 36.5078 72.1967 36.3047C72.3998 36.1016 72.6029 36 72.9076 36C73.2123 36 73.4154 36.1016 73.6185 36.3047C73.8217 36.5078 73.9232 36.7617 73.9232 37.0156C73.9232 37.3203 73.8217 37.5234 73.6185 37.7266ZM72.2982 36.4063C72.1459 36.5586 72.0443 36.7617 72.0443 37.0156C72.0443 37.2695 72.1459 37.4727 72.2982 37.625C72.4506 37.7774 72.6537 37.8789 72.9076 37.8789C73.1615 37.8789 73.3646 37.7774 73.517 37.625C73.6693 37.4727 73.7709 37.2188 73.7709 37.0156C73.7709 36.7617 73.6693 36.5586 73.517 36.4063C73.3646 36.2539 73.1615 36.1523 72.9076 36.1523C72.6537 36.1523 72.4506 36.2031 72.2982 36.4063ZM72.9076 36.457C73.0599 36.457 73.1615 36.457 73.2123 36.5078C73.3138 36.5586 73.3646 36.6602 73.3646 36.8125C73.3646 36.9141 73.3138 36.9649 73.2631 37.0156C73.2123 37.0156 73.1615 37.0664 73.1107 37.0664C73.2123 37.0664 73.2631 37.1172 73.3138 37.168C73.3646 37.2188 73.3646 37.2695 73.3646 37.3203V37.4219C73.3646 37.4727 73.3646 37.4727 73.3646 37.5234C73.3646 37.5742 73.3646 37.5742 73.3646 37.5742H73.1615V37.5234V37.4219C73.1615 37.2695 73.1107 37.2188 73.0599 37.168C73.0092 37.168 72.9584 37.1172 72.8568 37.1172H72.7045V37.5742H72.5013V36.457H72.9076ZM73.1107 36.6094C73.0599 36.5586 72.9584 36.5586 72.8568 36.5586H72.7045V37.0156H72.9076C73.0092 37.0156 73.0599 37.0156 73.1107 37.0156C73.2123 36.9649 73.2123 36.9141 73.2123 36.8633C73.1615 36.7109 73.1615 36.6602 73.1107 36.6094Z" fill="white"/>
</svg>
