<svg width="24" height="24" viewBox="0 0 24 24" fill="none" xmlns="http://www.w3.org/2000/svg">
<path d="M14.4561 20.0457H2.35618V3.35667H14.4561C14.5889 3.35667 14.7163 3.30392 14.8102 3.21001C14.9041 3.11611 14.9568 2.98875 14.9568 2.85595C14.9568 2.72315 14.9041 2.59579 14.8102 2.50189C14.7163 2.40798 14.5889 2.35523 14.4561 2.35523H1.85546C1.72266 2.35523 1.5953 2.40798 1.5014 2.50189C1.40749 2.59579 1.35474 2.72315 1.35474 2.85595V20.5464C1.35474 20.6792 1.40749 20.8066 1.5014 20.9005C1.5953 20.9944 1.72266 21.0471 1.85546 21.0471H14.4561C14.5889 21.0471 14.7163 20.9944 14.8102 20.9005C14.9041 20.8066 14.9568 20.6792 14.9568 20.5464C14.9568 20.4136 14.9041 20.2863 14.8102 20.1924C14.7163 20.0985 14.5889 20.0457 14.4561 20.0457Z" fill="#F1352B"/>
<path fill-rule="evenodd" clip-rule="evenodd" d="M2.71102 19.6909H14.4561C14.683 19.6909 14.9006 19.781 15.0611 19.9414C15.2215 20.1019 15.3117 20.3195 15.3117 20.5464C15.3117 20.7733 15.2215 20.9909 15.0611 21.1514C14.9006 21.3118 14.683 21.402 14.4561 21.402H1.85546C1.62855 21.402 1.41094 21.3118 1.25049 21.1514C1.09004 20.9909 0.999902 20.7733 0.999902 20.5464V2.85595C0.999902 2.62904 1.09004 2.41143 1.25049 2.25098C1.41094 2.09053 1.62855 2.00039 1.85546 2.00039H14.4561C14.683 2.00039 14.9006 2.09053 15.0611 2.25098C15.2215 2.41143 15.3117 2.62904 15.3117 2.85595C15.3117 3.08286 15.2215 3.30047 15.0611 3.46092C14.9006 3.62137 14.683 3.71151 14.4561 3.71151H2.71102V19.6909ZM14.4561 20.0457C14.5889 20.0457 14.7163 20.0985 14.8102 20.1924C14.9041 20.2863 14.9568 20.4136 14.9568 20.5464C14.9568 20.6792 14.9041 20.8066 14.8102 20.9005C14.7163 20.9944 14.5889 21.0471 14.4561 21.0471H1.85546C1.72266 21.0471 1.5953 20.9944 1.5014 20.9005C1.40749 20.8066 1.35474 20.6792 1.35474 20.5464V2.85595C1.35474 2.72315 1.40749 2.59579 1.5014 2.50189C1.5953 2.40798 1.72266 2.35523 1.85546 2.35523H14.4561C14.5889 2.35523 14.7163 2.40798 14.8102 2.50189C14.9041 2.59579 14.9568 2.72315 14.9568 2.85595C14.9568 2.98875 14.9041 3.11611 14.8102 3.21001C14.7163 3.30392 14.5889 3.35667 14.4561 3.35667H2.35618V20.0457H14.4561Z" fill="#F1352B"/>
<path d="M22.5628 11.9792C22.5628 11.9792 22.5754 11.9542 22.5829 11.9417C22.602 11.9118 22.6156 11.8787 22.6229 11.844C22.6229 11.829 22.6229 11.8165 22.6355 11.8015C22.6483 11.737 22.6483 11.6706 22.6355 11.6062C22.6355 11.5912 22.6355 11.5786 22.6229 11.5636C22.6156 11.5289 22.602 11.4958 22.5829 11.466C22.5829 11.4535 22.5704 11.4409 22.5628 11.4284C22.5446 11.4005 22.5237 11.3745 22.5003 11.3508L18.0088 6.86185C17.9148 6.76789 17.7874 6.71511 17.6545 6.71511C17.5217 6.71511 17.3942 6.76789 17.3003 6.86185C17.2063 6.95581 17.1535 7.08324 17.1535 7.21611C17.1535 7.34898 17.2063 7.47641 17.3003 7.57037L20.9355 11.2006H8.22971C8.09691 11.2006 7.96955 11.2534 7.87565 11.3473C7.78175 11.4412 7.72899 11.5685 7.72899 11.7013C7.72899 11.8341 7.78175 11.9615 7.87565 12.0554C7.96955 12.1493 8.09691 12.202 8.22971 12.202H20.9355L17.3053 15.8323C17.2527 15.877 17.2099 15.9321 17.1797 15.9941C17.1494 16.0561 17.1323 16.1237 17.1294 16.1926C17.1265 16.2616 17.1379 16.3304 17.1628 16.3947C17.1877 16.4591 17.2257 16.5175 17.2743 16.5665C17.323 16.6155 17.3812 16.6539 17.4453 16.6793C17.5095 16.7047 17.5782 16.7165 17.6472 16.7141C17.7162 16.7117 17.7839 16.6951 17.8461 16.6652C17.9083 16.6354 17.9637 16.593 18.0088 16.5408L22.4978 12.0568C22.522 12.0332 22.5438 12.0072 22.5628 11.9792Z" fill="#F1352B"/>
<path fill-rule="evenodd" clip-rule="evenodd" d="M22.6355 11.8015C22.6229 11.8165 22.6229 11.829 22.6229 11.844C22.6156 11.8787 22.602 11.9118 22.5829 11.9417C22.5754 11.9542 22.5628 11.9792 22.5628 11.9792C22.5438 12.0072 22.522 12.0332 22.4978 12.0568L18.0088 16.5408C17.9637 16.593 17.9083 16.6354 17.8461 16.6652C17.7839 16.6951 17.7162 16.7117 17.6472 16.7141C17.5782 16.7165 17.5095 16.7047 17.4453 16.6793C17.3812 16.6539 17.323 16.6155 17.2743 16.5665C17.2257 16.5175 17.1877 16.4591 17.1628 16.3947C17.1379 16.3304 17.1265 16.2616 17.1294 16.1926C17.1323 16.1237 17.1494 16.0561 17.1797 15.9941C17.2099 15.9321 17.2527 15.877 17.3053 15.8323L20.9355 12.202H8.22971C8.09691 12.202 7.96955 12.1493 7.87565 12.0554C7.78175 11.9615 7.72899 11.8341 7.72899 11.7013C7.72899 11.5685 7.78175 11.4412 7.87565 11.3473C7.96955 11.2534 8.09691 11.2006 8.22971 11.2006H20.9355L17.3003 7.57037C17.2063 7.47641 17.1535 7.34898 17.1535 7.21611C17.1535 7.08324 17.2063 6.95581 17.3003 6.86185C17.3942 6.76789 17.5217 6.71511 17.6545 6.71511C17.7874 6.71511 17.9148 6.76789 18.0088 6.86185L22.5003 11.3508C22.5237 11.3745 22.5446 11.4005 22.5628 11.4284C22.565 11.432 22.5675 11.4356 22.5701 11.4392C22.5765 11.4481 22.5829 11.457 22.5829 11.466C22.602 11.4958 22.6156 11.5289 22.6229 11.5636C22.6355 11.5786 22.6355 11.5912 22.6355 11.6062C22.6483 11.6706 22.6483 11.737 22.6355 11.8015ZM22.989 11.5677C23.0052 11.6681 23.0033 11.7707 22.9835 11.8707L22.9659 11.9592L22.9565 11.9704C22.9403 12.0242 22.9172 12.0757 22.8877 12.1235C22.887 12.1247 22.8861 12.1264 22.8849 12.1288L22.8813 12.1357L22.8803 12.1377L22.5628 11.9792L22.8564 12.1786C22.8244 12.2257 22.7878 12.2695 22.7471 12.3093L18.2676 16.7838C18.1924 16.8679 18.1013 16.9364 17.9995 16.9852C17.8932 17.0362 17.7775 17.0646 17.6596 17.0687C17.5418 17.0729 17.4244 17.0526 17.3147 17.0092C17.2051 16.9658 17.1056 16.9002 17.0225 16.8165C16.9395 16.7329 16.8746 16.6329 16.832 16.523C16.7893 16.4131 16.7699 16.2955 16.7749 16.1777C16.7798 16.0599 16.8091 15.9444 16.8608 15.8384C16.9101 15.7373 16.9789 15.647 17.0631 15.5726L20.0789 12.5569H8.22971C8.0028 12.5569 7.78519 12.4667 7.62474 12.3063C7.46429 12.1458 7.37415 11.9282 7.37415 11.7013C7.37415 11.4744 7.46429 11.2568 7.62474 11.0963C7.78519 10.9359 8.0028 10.8458 8.22971 10.8458H20.078L17.0495 7.82145C16.889 7.66095 16.7987 7.44309 16.7987 7.21611C16.7987 6.98913 16.8889 6.77144 17.0494 6.61094C17.2099 6.45044 17.4276 6.36027 17.6545 6.36027C17.8815 6.36027 18.0992 6.45044 18.2597 6.61094L22.7529 11.1017C22.7929 11.1422 22.8287 11.1866 22.8599 11.2343L22.8628 11.2384C22.8651 11.2418 22.8689 11.2473 22.8732 11.2538C22.8809 11.2657 22.8955 11.2892 22.9085 11.3205C22.9271 11.3555 22.9424 11.3922 22.9543 11.4301C22.9653 11.4543 22.9739 11.4797 22.9799 11.5063C22.985 11.5288 22.9877 11.5504 22.989 11.5677ZM22.8581 11.2319C22.8574 11.2308 22.8574 11.2308 22.8581 11.2319V11.2319ZM22.9778 11.844C22.9778 11.8385 22.978 11.8399 22.9778 11.8459V11.844Z" fill="#F1352B"/>
<path fill-rule="evenodd" clip-rule="evenodd" d="M2.30618 20.0957V3.30667H14.4561C14.5756 3.30667 14.6903 3.25918 14.7748 3.17466C14.8593 3.09013 14.9068 2.97549 14.9068 2.85595C14.9068 2.73641 14.8593 2.62177 14.7748 2.53724C14.6903 2.45271 14.5756 2.40523 14.4561 2.40523H1.85546C1.73592 2.40523 1.62128 2.45271 1.53675 2.53724C1.45223 2.62177 1.40474 2.73641 1.40474 2.85595V20.5464C1.40474 20.666 1.45223 20.7806 1.53675 20.8651C1.62128 20.9497 1.73592 20.9971 1.85546 20.9971H14.4561C14.5756 20.9971 14.6903 20.9497 14.7748 20.8651C14.8593 20.7806 14.9068 20.666 14.9068 20.5464C14.9068 20.4269 14.8593 20.3122 14.7748 20.2277C14.6903 20.1432 14.5756 20.0957 14.4561 20.0957H2.30618ZM22.5197 11.9537L22.5203 11.9525L22.5257 11.9421C22.5298 11.9342 22.5354 11.9236 22.54 11.9159L22.5408 11.9147C22.5558 11.8913 22.5667 11.8655 22.573 11.8385C22.573 11.8315 22.5734 11.8218 22.5757 11.8117C22.5781 11.8012 22.5822 11.7911 22.5883 11.7814C22.5979 11.7266 22.5973 11.6705 22.5864 11.6159L22.5845 11.6062L22.5853 11.5981C22.5853 11.5973 22.5852 11.5968 22.5852 11.5965C22.5851 11.5963 22.5848 11.596 22.5845 11.5956L22.5766 11.5861L22.574 11.574C22.5679 11.5452 22.5567 11.5177 22.5408 11.493L22.5829 11.466H22.5003L22.5199 11.4542C22.5038 11.4298 22.4854 11.407 22.4649 11.3861C22.4648 11.3861 22.4649 11.3862 22.4649 11.3861L17.9734 6.89722C17.8889 6.81264 17.7741 6.76511 17.6545 6.76511C17.5349 6.76511 17.4202 6.81263 17.3356 6.89721C17.251 6.98178 17.2035 7.0965 17.2035 7.21611C17.2035 7.33572 17.251 7.45044 17.3356 7.53501L21.0563 11.2506H8.22971C8.11017 11.2506 7.99553 11.2981 7.91101 11.3826C7.82648 11.4671 7.77899 11.5818 7.77899 11.7013C7.77899 11.8209 7.82648 11.9355 7.91101 12.02C7.99553 12.1046 8.11017 12.152 8.22971 12.152H21.0562L17.3378 15.8705C17.2905 15.9107 17.2519 15.9602 17.2246 16.016C17.1974 16.0718 17.1819 16.1327 17.1793 16.1947C17.1767 16.2568 17.187 16.3187 17.2094 16.3766C17.2319 16.4346 17.2661 16.4872 17.3098 16.5313C17.3536 16.5754 17.406 16.6099 17.4637 16.6328C17.5215 16.6557 17.5834 16.6663 17.6454 16.6642C17.7075 16.662 17.7685 16.647 17.8245 16.6201C17.8805 16.5933 17.9304 16.5552 17.9709 16.5081L17.9734 16.5053L22.4624 12.0215C22.4835 12.0009 22.503 11.9779 22.5197 11.9537ZM22.5628 11.4284L22.6486 11.377C22.6483 11.3766 22.6484 11.3767 22.6486 11.377C22.6489 11.3775 22.6499 11.3788 22.6506 11.3798L22.6512 11.3807C22.6525 11.3825 22.6555 11.3866 22.6587 11.3915C22.6612 11.3952 22.664 11.3997 22.6665 11.4044C22.6688 11.4085 22.6711 11.4133 22.6732 11.4185C22.6749 11.4224 22.6765 11.4269 22.678 11.4319C22.6746 11.4205 22.6703 11.4114 22.667 11.4054C22.6669 11.405 22.6667 11.4047 22.6665 11.4044C22.6639 11.3997 22.6615 11.3957 22.6595 11.3927C22.6593 11.3923 22.659 11.3919 22.6587 11.3915M22.6406 11.466C22.6532 11.4902 22.6629 11.5159 22.6694 11.5425C22.6759 11.5525 22.6802 11.5629 22.6826 11.5738C22.685 11.5843 22.6854 11.5944 22.6854 11.6013C22.6986 11.6707 22.6983 11.742 22.6845 11.8112L22.682 11.8237L22.6739 11.8335C22.6736 11.8338 22.6733 11.8341 22.6732 11.8343C22.6731 11.8347 22.6731 11.8352 22.6731 11.8359L22.6729 11.844V11.8546L22.6719 11.8544C22.6676 11.8744 22.6616 11.894 22.6539 11.9129L22.8375 12.0045C22.8465 11.9841 22.8543 11.963 22.8608 11.9416L22.8667 11.9221L22.8727 11.9148L22.8819 11.8688C22.8823 11.8701 22.8828 11.8717 22.8833 11.8733C22.8845 11.8767 22.8882 11.8869 22.8961 11.8982C22.8974 11.9 22.8997 11.9031 22.9031 11.9069L22.9265 11.9264C22.9396 11.9344 22.957 11.9408 22.9789 11.9406C23.0284 11.9401 23.0541 11.9059 23.0592 11.8987C23.0621 11.8946 23.0645 11.8906 23.0663 11.8871C23.0694 11.8813 23.0711 11.8767 23.0718 11.8747C23.0735 11.8701 23.0745 11.8664 23.075 11.8643C23.076 11.8601 23.0766 11.8564 23.0769 11.854C23.0771 11.8525 23.0772 11.8515 23.0773 11.8513L23.0774 11.8495L22.8864 11.846C22.8864 11.8461 22.8864 11.846 22.8864 11.846C22.8865 11.8454 22.8867 11.8446 22.8868 11.844C22.8869 11.8436 22.887 11.8431 22.887 11.8426L22.8779 11.8423C22.8779 11.8428 22.8779 11.8434 22.8779 11.844L22.8778 11.8381L22.8779 11.8358L22.8784 11.8299C22.8785 11.8291 22.8791 11.8235 22.8807 11.8168C22.881 11.8157 22.8814 11.8141 22.882 11.8122C22.8824 11.8105 22.8831 11.8086 22.8838 11.8065C22.885 11.8033 22.8885 11.794 22.8957 11.7835C22.9027 11.717 22.9009 11.6498 22.8903 11.5836L22.889 11.5754C22.8879 11.5616 22.8862 11.545 22.8824 11.5284C22.8779 11.5085 22.8714 11.4894 22.8632 11.4712L22.8582 11.4603C22.8482 11.4282 22.8359 11.397 22.8202 11.3674L22.8157 11.359C22.806 11.3356 22.7954 11.3177 22.7894 11.3083C22.786 11.3032 22.783 11.2988 22.781 11.296L22.7779 11.2916L22.7788 11.2927L22.781 11.296L22.7826 11.2973C22.783 11.2977 22.7867 11.302 22.792 11.3066C22.7924 11.3069 22.7928 11.3073 22.7932 11.3076C22.7951 11.3092 22.8001 11.313 22.8032 11.315C22.8082 11.3181 22.8227 11.3248 22.8324 11.3279C22.8512 11.3309 22.8993 11.322 22.9246 11.3053C22.9418 11.2849 22.9564 11.2461 22.9576 11.2311C22.9572 11.223 22.9553 11.2101 22.9542 11.2053C22.9539 11.2043 22.9535 11.2031 22.9531 11.2019L22.957 11.1993C22.9661 11.2132 22.9832 11.2407 22.999 11.2777C23.0186 11.3152 23.035 11.3542 23.048 11.3945C23.0604 11.4231 23.0703 11.453 23.0774 11.4841C23.0835 11.5107 23.0867 11.5356 23.0884 11.5557C23.1058 11.6666 23.1035 11.7798 23.0816 11.8902L23.059 12.0037L23.0459 12.0194C23.0311 12.0639 23.0122 12.1069 22.9893 12.1479L22.9953 12.152L22.9555 12.2107L22.9247 12.2715L22.916 12.2672C22.8862 12.3075 22.8533 12.3453 22.8175 12.3803C22.8173 12.3805 22.8176 12.3802 22.8175 12.3803L18.3403 16.8526C18.2567 16.9456 18.1556 17.0213 18.0427 17.0754C17.924 17.1323 17.7947 17.1641 17.6631 17.1687C17.5315 17.1733 17.4004 17.1506 17.2779 17.1022C17.1555 17.0537 17.0444 16.9804 16.9516 16.887C16.8588 16.7935 16.7863 16.6819 16.7387 16.5591C16.6911 16.4364 16.6694 16.3051 16.6749 16.1735C16.6805 16.0419 16.7132 15.9129 16.7709 15.7946C16.8256 15.6826 16.9016 15.5825 16.9946 15.4998L19.8374 12.6569H8.22971C7.97628 12.6569 7.73323 12.5562 7.55403 12.377C7.37483 12.1978 7.27415 11.9547 7.27415 11.7013C7.27415 11.4479 7.37483 11.2048 7.55403 11.0256C7.73323 10.8464 7.97628 10.7458 8.22971 10.7458H19.8364L16.9789 7.89221C16.7996 7.71298 16.6987 7.46964 16.6987 7.21611C16.6987 6.96261 16.7994 6.71948 16.9787 6.54023C17.1579 6.36098 17.401 6.26027 17.6545 6.26027C17.908 6.26027 18.1512 6.36098 18.3304 6.54023L22.8236 11.0309C22.8679 11.0758 22.9081 11.1255 22.9427 11.1782L22.9446 11.1809M22.9433 11.1797L22.9446 11.1809C22.9444 11.1807 22.9446 11.181 22.9446 11.1809C22.9451 11.1819 22.9459 11.1842 22.947 11.1865C22.9477 11.1878 22.9492 11.1909 22.9508 11.195C22.9514 11.1964 22.9523 11.1993 22.9531 11.2019L22.957 11.1993C22.952 11.1915 22.9473 11.1848 22.9446 11.1809M22.9433 11.1797L22.8599 11.2343L22.9417 11.1771L22.9406 11.1754L22.7767 11.2899L22.7761 11.289C22.7761 11.289 22.7761 11.2891 22.7761 11.289L22.7752 11.2879L22.7745 11.2868L22.7733 11.2849L22.7712 11.2815M22.7712 11.2815C22.7449 11.2424 22.715 11.2057 22.6819 11.1721C22.6818 11.172 22.682 11.1721 22.6819 11.1721L18.189 6.68167C18.0473 6.53993 17.855 6.46027 17.6545 6.46027C17.4541 6.46027 17.2618 6.53991 17.1201 6.68165C16.9783 6.8234 16.8987 7.01565 16.8987 7.21611C16.8987 7.41654 16.9785 7.60897 17.1202 7.75074L20.3197 10.9458H8.22971C8.02933 10.9458 7.83715 11.0254 7.69545 11.1671C7.55376 11.3088 7.47415 11.5009 7.47415 11.7013C7.47415 11.9017 7.55376 12.0939 7.69545 12.2356C7.83715 12.3773 8.02933 12.4569 8.22971 12.4569H20.3203L17.1295 15.6477C17.0551 15.7134 16.9942 15.793 16.9507 15.8823C16.905 15.9759 16.8792 16.0779 16.8748 16.1819C16.8704 16.2859 16.8876 16.3898 16.9252 16.4868C16.9628 16.5839 17.0201 16.6722 17.0935 16.7461C17.1669 16.82 17.2547 16.8779 17.3515 16.9162C17.4483 16.9545 17.552 16.9725 17.6561 16.9688C17.7602 16.9652 17.8624 16.94 17.9563 16.895C18.0462 16.8519 18.1267 16.7915 18.1931 16.7171L18.1968 16.7129L22.6771 12.2379C22.6892 12.2261 22.7008 12.2139 22.712 12.2014L22.5405 12.0849C22.5379 12.0874 22.5354 12.0899 22.5329 12.0924C22.5328 12.0925 22.5329 12.0924 22.5329 12.0924L18.0454 16.5749C17.9961 16.6317 17.9356 16.6778 17.8677 16.7103C17.7993 16.7431 17.7248 16.7614 17.6489 16.7641C17.5731 16.7668 17.4975 16.7537 17.4269 16.7258C17.3564 16.6978 17.2923 16.6556 17.2389 16.6017C17.1854 16.5479 17.1436 16.4836 17.1162 16.4128C17.0887 16.342 17.0762 16.2664 17.0794 16.1905C17.0826 16.1147 17.1015 16.0403 17.1347 15.9721C17.1677 15.9046 17.2142 15.8444 17.2713 15.7955L20.8148 12.252H8.22971C8.08365 12.252 7.94357 12.194 7.84029 12.0907C7.73701 11.9875 7.67899 11.8474 7.67899 11.7013C7.67899 11.5553 7.73701 11.4152 7.84029 11.3119C7.94357 11.2086 8.08365 11.1506 8.22971 11.1506H20.8147L17.2649 7.60575C17.1616 7.50242 17.1035 7.36224 17.1035 7.21611C17.1035 7.06998 17.1616 6.92983 17.2649 6.82649C17.3682 6.72316 17.5084 6.66511 17.6545 6.66511C17.8007 6.66511 17.9408 6.72316 18.0441 6.82649L22.5356 11.3154C22.5613 11.3415 22.5847 11.3704 22.6047 11.4011L22.5628 11.4284M22.878 11.8459L22.8864 11.846C22.8861 11.8478 22.8857 11.8495 22.8854 11.8512L22.8819 11.8688C22.8811 11.8662 22.8806 11.8641 22.8803 11.8627C22.8793 11.8584 22.8789 11.855 22.8787 11.8535C22.8783 11.8504 22.8781 11.848 22.8781 11.8472C22.878 11.8467 22.878 11.8463 22.878 11.8459ZM22.6732 11.8343C22.6731 11.8345 22.6731 11.8345 22.6732 11.8343V11.8343ZM22.4835 11.476L22.5003 11.466H22.4829C22.4829 11.4696 22.4831 11.4729 22.4835 11.476ZM22.4868 11.4906C22.4856 11.4869 22.4843 11.482 22.4835 11.476L22.4771 11.4799C22.4798 11.4844 22.4826 11.4885 22.4848 11.4917C22.4865 11.4941 22.4879 11.4961 22.4887 11.4973L22.4917 11.5015C22.4918 11.5016 22.4918 11.5016 22.4917 11.5015M22.4917 11.5015C22.4918 11.5016 22.4918 11.5016 22.4917 11.5015C22.492 11.502 22.4916 11.5014 22.4907 11.4998L22.4917 11.5015ZM22.4868 11.4906C22.4874 11.4922 22.4879 11.4936 22.4884 11.4947C22.4887 11.4955 22.4884 11.4966 22.4887 11.4973M2.40618 19.9957H14.4561C14.6022 19.9957 14.7422 20.0537 14.8455 20.157C14.9488 20.2603 15.0068 20.4004 15.0068 20.5464C15.0068 20.6925 14.9488 20.8326 14.8455 20.9358C14.7422 21.0391 14.6022 21.0971 14.4561 21.0971H1.85546C1.7094 21.0971 1.56932 21.0391 1.46604 20.9358C1.36276 20.8326 1.30474 20.6925 1.30474 20.5464V2.85595C1.30474 2.70989 1.36276 2.56981 1.46604 2.46653C1.56932 2.36325 1.7094 2.30523 1.85546 2.30523H14.4561C14.6022 2.30523 14.7422 2.36325 14.8455 2.46653C14.9488 2.56981 15.0068 2.70989 15.0068 2.85595C15.0068 3.00201 14.9488 3.14209 14.8455 3.24537C14.7422 3.34865 14.6022 3.40667 14.4561 3.40667H2.40618V19.9957ZM2.61102 19.7909V3.61151H14.4561C14.6565 3.61151 14.8487 3.5319 14.9904 3.39021C15.1321 3.24852 15.2117 3.05634 15.2117 2.85595C15.2117 2.65556 15.1321 2.46338 14.9904 2.32169C14.8487 2.17999 14.6565 2.10039 14.4561 2.10039H1.85546C1.65507 2.10039 1.46289 2.17999 1.3212 2.32169C1.17951 2.46338 1.0999 2.65556 1.0999 2.85595V20.5464C1.0999 20.7468 1.17951 20.939 1.3212 21.0807C1.4629 21.2224 1.65507 21.302 1.85546 21.302H14.4561C14.6565 21.302 14.8487 21.2224 14.9904 21.0807C15.1321 20.939 15.2117 20.7468 15.2117 20.5464C15.2117 20.346 15.1321 20.1539 14.9904 20.0122C14.8487 19.8705 14.6565 19.7909 14.4561 19.7909H2.61102ZM2.81102 19.5909H14.4561C14.7095 19.5909 14.9526 19.6915 15.1318 19.8707C15.311 20.0499 15.4117 20.293 15.4117 20.5464C15.4117 20.7999 15.311 21.0429 15.1318 21.2221C14.9526 21.4013 14.7095 21.502 14.4561 21.502H1.85546C1.60203 21.502 1.35898 21.4013 1.17978 21.2221C1.00058 21.0429 0.899902 20.7998 0.899902 20.5464V2.85595C0.899902 2.60252 1.00058 2.35947 1.17978 2.18027C1.35898 2.00107 1.60203 1.90039 1.85546 1.90039H14.4561C14.7095 1.90039 14.9526 2.00107 15.1318 2.18027C15.311 2.35947 15.4117 2.60252 15.4117 2.85595C15.4117 3.10938 15.311 3.35243 15.1318 3.53163C14.9526 3.71083 14.7095 3.81151 14.4561 3.81151H2.81102V19.5909Z" fill="#F1352B"/>
</svg>
