<svg width="24" height="24" viewBox="0 0 24 24" fill="none" xmlns="http://www.w3.org/2000/svg">
<path d="M23 15.8004H20.9V11.4004C20.9 7.00039 17.5 3.20039 13.1 2.70039V1.00039C13 1.00039 13 0.900391 13 0.900391H11.1V2.60039C6.6 3.00039 3.2 6.90039 3.2 11.4004V13.8004H5.2V11.4004C5.2 7.60039 8.2 4.60039 12 4.60039H12.2C16 4.60039 19 7.60039 19 11.4004V15.8004H1V20.9004H9.3C9.4 22.3004 10.6 23.4004 12 23.4004C13.4 23.4004 14.6 22.3004 14.7 20.9004H23V15.8004ZM12 21.8004C11.5 21.8004 11.1 21.4004 11 21.0004H13.1C12.9 21.4004 12.5 21.8004 12 21.8004ZM21 18.9004H3V17.8004H21V18.9004Z" fill="#01C1D6"/>
</svg>
