<svg width="24" height="24" viewBox="0 0 24 24" fill="none" xmlns="http://www.w3.org/2000/svg">
<path d="M8.61997 11.8C11.32 11.8 13.52 9.6 13.52 6.9C13.52 4.2 11.32 2 8.61997 2C5.91997 2 3.71997 4.2 3.71997 6.9C3.71997 9.6 5.90997 11.8 8.61997 11.8ZM5.50997 6.9C5.50997 5.19 6.89997 3.79 8.61997 3.79C10.33 3.79 11.73 5.18 11.73 6.9C11.73 8.62 10.33 10.01 8.61997 10.01C6.89997 10.01 5.50997 8.61 5.50997 6.9Z" fill="#01C1D6"/>
<path d="M23.44 11.49C23.49 11.38 23.52 11.26 23.52 11.14C23.52 10.9 23.43 10.68 23.26 10.51L19.49 6.74004C19.14 6.39004 18.58 6.39004 18.23 6.74004C17.88 7.09004 17.88 7.65004 18.23 8.00004L20.47 10.24H14.62C14.12 10.24 13.72 10.65 13.72 11.14C13.72 11.63 14.13 12.04 14.62 12.04H20.47L18.23 14.28C17.88 14.63 17.88 15.19 18.23 15.54C18.4 15.71 18.63 15.8 18.86 15.8C19.09 15.8 19.32 15.71 19.49 15.54L23.26 11.77C23.3 11.73 23.32 11.69 23.34 11.65C23.37 11.6 23.42 11.54 23.44 11.49Z" fill="#01C1D6"/>
<path d="M14.42 13.3096H2.81995C1.50995 13.3096 0.449951 14.3696 0.449951 15.6796V18.0096H2.23995V15.6796C2.23995 15.3596 2.49995 15.0996 2.81995 15.0996H14.41C14.73 15.0996 14.99 15.3596 14.99 15.6796V20.3796H2.90995H2.23995H0.449951V22.1696H16.79V15.6796C16.79 14.3696 15.73 13.3096 14.42 13.3096Z" fill="#01C1D6"/>
</svg>
