<svg width="24" height="24" viewBox="0 0 24 24" fill="none" xmlns="http://www.w3.org/2000/svg">
<path d="M12 1C5.93322 1 1 5.93322 1 12V19.5087H2.93157V12C2.93157 7.0033 6.99423 2.93157 12 2.93157C16.9967 2.93157 21.0684 6.99423 21.0684 12C21.0684 16.9967 17.0058 21.0684 12 21.0684L1 21.0866V22.0297C1 22.5647 1.43528 23 1.97032 23H12C18.0668 23 23 18.0668 23 12C23 5.93322 18.0668 1 12 1Z" fill="#01C1D6"/>
<path d="M13.4238 12.3177C13.5961 12.1908 14.0404 11.8371 14.4213 11.3474C14.8838 10.7489 15.1286 10.1322 15.1286 9.51558C15.1286 8.01022 13.7865 6.94922 11.8549 6.94922C9.78734 6.94922 8.81702 8.20066 8.81702 9.05309C8.81702 9.35235 8.93491 9.60627 9.15255 9.78764C9.46994 10.0416 9.97777 10.1141 10.277 9.86018C10.3859 9.7695 10.4675 9.65161 10.5491 9.52465C10.6488 9.37956 10.7577 9.21633 10.939 9.08937C11.1476 8.94427 11.4287 8.88079 11.7915 8.88079C12.1542 8.88079 12.4535 8.96241 12.6711 9.1075C12.8978 9.26167 13.0066 9.48838 13.0066 9.7695C13.0066 10.0325 12.9069 10.2773 12.6983 10.5222C12.5079 10.7489 12.2539 10.9393 12.0182 11.1207C11.9184 11.2023 11.8187 11.2749 11.728 11.3474C11.5194 11.5288 11.2564 11.7827 11.0478 12.1636C10.8121 12.5898 10.6942 13.1067 10.6942 13.6871C10.6942 14.1133 10.7577 14.3763 10.9028 14.5486C11.0932 14.7662 11.3925 14.7934 11.6282 14.7934C11.9819 14.7934 12.254 14.7209 12.4172 14.5667C12.5532 14.4397 12.6167 14.2765 12.6167 14.0679C12.6167 13.7143 12.6167 13.415 12.7164 13.1339C12.8525 12.8618 13.061 12.6079 13.4238 12.3177Z" fill="#01C1D6"/>
<path d="M11.6645 15.5908C10.9753 15.5908 10.4221 16.1531 10.4221 16.8513C10.4221 17.5496 10.9844 18.1118 11.6645 18.1118C12.3446 18.1118 12.925 17.5315 12.925 16.8513C12.925 16.1712 12.3446 15.5908 11.6645 15.5908Z" fill="#01C1D6"/>
</svg>
